<mxfile host="Electron" modified="2023-05-16T06:51:01.277Z" agent="Mozilla/5.0 (X11; Linux x86_64) AppleWebKit/537.36 (KHTML, like Gecko) draw.io/21.2.8 Chrome/112.0.5615.165 Electron/24.2.0 Safari/537.36" etag="3A6h48yfqeHVFF1Yib-A" version="21.2.8" type="device">
  <diagram name="Página-1" id="w9NlDxh7JQjRFeB7CgQZ">
    <mxGraphModel dx="5227" dy="2795" grid="1" gridSize="10" guides="1" tooltips="1" connect="1" arrows="1" fold="1" page="1" pageScale="1" pageWidth="827" pageHeight="1169" math="0" shadow="0">
      <root>
        <mxCell id="0" />
        <mxCell id="1" parent="0" />
        <mxCell id="qp96KWpw2pJv_IqnviUn-1" value="Genera cantidad de personas que asistirán al gimnasio" style="rounded=1;whiteSpace=wrap;html=1;" vertex="1" parent="1">
          <mxGeometry x="-1" y="260" width="120" height="60" as="geometry" />
        </mxCell>
        <mxCell id="qp96KWpw2pJv_IqnviUn-2" value="&lt;font style=&quot;font-size: 10px;&quot;&gt;¿Es un &lt;br&gt;usuario &lt;br&gt;o cliente?&lt;/font&gt;" style="rhombus;whiteSpace=wrap;html=1;" vertex="1" parent="1">
          <mxGeometry x="20" y="375" width="79" height="80" as="geometry" />
        </mxCell>
        <mxCell id="qp96KWpw2pJv_IqnviUn-171" style="edgeStyle=orthogonalEdgeStyle;rounded=0;orthogonalLoop=1;jettySize=auto;html=1;entryX=0;entryY=0.5;entryDx=0;entryDy=0;" edge="1" parent="1" source="qp96KWpw2pJv_IqnviUn-3" target="qp96KWpw2pJv_IqnviUn-170">
          <mxGeometry relative="1" as="geometry" />
        </mxCell>
        <mxCell id="qp96KWpw2pJv_IqnviUn-3" value="Usuario" style="rounded=1;whiteSpace=wrap;html=1;" vertex="1" parent="1">
          <mxGeometry x="119" y="440" width="120" height="60" as="geometry" />
        </mxCell>
        <mxCell id="qp96KWpw2pJv_IqnviUn-4" value="Cliente" style="rounded=1;whiteSpace=wrap;html=1;" vertex="1" parent="1">
          <mxGeometry x="-135" y="455" width="120" height="60" as="geometry" />
        </mxCell>
        <mxCell id="qp96KWpw2pJv_IqnviUn-5" value="" style="endArrow=classic;html=1;rounded=0;exitX=0.5;exitY=1;exitDx=0;exitDy=0;entryX=0.5;entryY=0;entryDx=0;entryDy=0;" edge="1" parent="1" source="qp96KWpw2pJv_IqnviUn-1" target="qp96KWpw2pJv_IqnviUn-2">
          <mxGeometry width="50" height="50" relative="1" as="geometry">
            <mxPoint x="85" y="350" as="sourcePoint" />
            <mxPoint x="135" y="300" as="targetPoint" />
          </mxGeometry>
        </mxCell>
        <mxCell id="qp96KWpw2pJv_IqnviUn-6" value="" style="endArrow=classic;html=1;rounded=0;exitX=1;exitY=1;exitDx=0;exitDy=0;entryX=0;entryY=0.5;entryDx=0;entryDy=0;" edge="1" parent="1" source="qp96KWpw2pJv_IqnviUn-2" target="qp96KWpw2pJv_IqnviUn-3">
          <mxGeometry width="50" height="50" relative="1" as="geometry">
            <mxPoint x="69" y="345" as="sourcePoint" />
            <mxPoint x="69" y="385" as="targetPoint" />
          </mxGeometry>
        </mxCell>
        <mxCell id="qp96KWpw2pJv_IqnviUn-8" value="" style="endArrow=classic;html=1;rounded=0;entryX=1;entryY=0.5;entryDx=0;entryDy=0;exitX=0;exitY=1;exitDx=0;exitDy=0;" edge="1" parent="1" source="qp96KWpw2pJv_IqnviUn-2" target="qp96KWpw2pJv_IqnviUn-4">
          <mxGeometry width="50" height="50" relative="1" as="geometry">
            <mxPoint x="-5" y="505" as="sourcePoint" />
            <mxPoint x="45" y="455" as="targetPoint" />
          </mxGeometry>
        </mxCell>
        <mxCell id="qp96KWpw2pJv_IqnviUn-9" value="Venta de Productos" style="rounded=1;whiteSpace=wrap;html=1;" vertex="1" parent="1">
          <mxGeometry x="-135" y="855" width="120" height="60" as="geometry" />
        </mxCell>
        <mxCell id="qp96KWpw2pJv_IqnviUn-10" value="" style="endArrow=classic;html=1;rounded=0;exitX=0.5;exitY=1;exitDx=0;exitDy=0;entryX=0.5;entryY=0;entryDx=0;entryDy=0;" edge="1" parent="1" source="qp96KWpw2pJv_IqnviUn-4" target="qp96KWpw2pJv_IqnviUn-9">
          <mxGeometry width="50" height="50" relative="1" as="geometry">
            <mxPoint x="-75" y="540" as="sourcePoint" />
            <mxPoint x="-75" y="495" as="targetPoint" />
          </mxGeometry>
        </mxCell>
        <mxCell id="qp96KWpw2pJv_IqnviUn-11" value="Escoge una suscripción" style="rounded=1;whiteSpace=wrap;html=1;" vertex="1" parent="1">
          <mxGeometry x="120.5" y="601" width="120" height="60" as="geometry" />
        </mxCell>
        <mxCell id="qp96KWpw2pJv_IqnviUn-13" value="Visita" style="rhombus;whiteSpace=wrap;html=1;" vertex="1" parent="1">
          <mxGeometry x="140.5" y="691" width="80" height="80" as="geometry" />
        </mxCell>
        <mxCell id="qp96KWpw2pJv_IqnviUn-14" value="Semana" style="rhombus;whiteSpace=wrap;html=1;" vertex="1" parent="1">
          <mxGeometry x="255.5" y="691" width="80" height="80" as="geometry" />
        </mxCell>
        <mxCell id="qp96KWpw2pJv_IqnviUn-15" value="Mensualidad" style="rhombus;whiteSpace=wrap;html=1;" vertex="1" parent="1">
          <mxGeometry x="365.5" y="691" width="80" height="80" as="geometry" />
        </mxCell>
        <mxCell id="qp96KWpw2pJv_IqnviUn-16" value="Tres meses" style="rhombus;whiteSpace=wrap;html=1;" vertex="1" parent="1">
          <mxGeometry x="475.5" y="691" width="80" height="80" as="geometry" />
        </mxCell>
        <mxCell id="qp96KWpw2pJv_IqnviUn-17" value="Anualidad" style="rhombus;whiteSpace=wrap;html=1;" vertex="1" parent="1">
          <mxGeometry x="585.5" y="691" width="80" height="80" as="geometry" />
        </mxCell>
        <mxCell id="qp96KWpw2pJv_IqnviUn-18" value="" style="endArrow=classic;html=1;rounded=0;exitX=0.5;exitY=1;exitDx=0;exitDy=0;entryX=0.5;entryY=0;entryDx=0;entryDy=0;" edge="1" parent="1" source="qp96KWpw2pJv_IqnviUn-11" target="qp96KWpw2pJv_IqnviUn-13">
          <mxGeometry width="50" height="50" relative="1" as="geometry">
            <mxPoint x="244" y="795" as="sourcePoint" />
            <mxPoint x="294" y="745" as="targetPoint" />
          </mxGeometry>
        </mxCell>
        <mxCell id="qp96KWpw2pJv_IqnviUn-19" value="" style="endArrow=classic;html=1;rounded=0;exitX=1;exitY=0.5;exitDx=0;exitDy=0;entryX=0;entryY=0.5;entryDx=0;entryDy=0;" edge="1" parent="1" source="qp96KWpw2pJv_IqnviUn-13" target="qp96KWpw2pJv_IqnviUn-14">
          <mxGeometry width="50" height="50" relative="1" as="geometry">
            <mxPoint x="205.5" y="841" as="sourcePoint" />
            <mxPoint x="255.5" y="791" as="targetPoint" />
          </mxGeometry>
        </mxCell>
        <mxCell id="qp96KWpw2pJv_IqnviUn-20" value="" style="endArrow=classic;html=1;rounded=0;exitX=1;exitY=0.5;exitDx=0;exitDy=0;entryX=0;entryY=0.5;entryDx=0;entryDy=0;" edge="1" parent="1" source="qp96KWpw2pJv_IqnviUn-14" target="qp96KWpw2pJv_IqnviUn-15">
          <mxGeometry width="50" height="50" relative="1" as="geometry">
            <mxPoint x="230.5" y="741" as="sourcePoint" />
            <mxPoint x="265.5" y="741" as="targetPoint" />
          </mxGeometry>
        </mxCell>
        <mxCell id="qp96KWpw2pJv_IqnviUn-21" value="" style="endArrow=classic;html=1;rounded=0;exitX=1;exitY=0.5;exitDx=0;exitDy=0;entryX=0;entryY=0.5;entryDx=0;entryDy=0;" edge="1" parent="1" source="qp96KWpw2pJv_IqnviUn-15" target="qp96KWpw2pJv_IqnviUn-16">
          <mxGeometry width="50" height="50" relative="1" as="geometry">
            <mxPoint x="345.5" y="741" as="sourcePoint" />
            <mxPoint x="375.5" y="741" as="targetPoint" />
          </mxGeometry>
        </mxCell>
        <mxCell id="qp96KWpw2pJv_IqnviUn-22" value="" style="endArrow=classic;html=1;rounded=0;exitX=1;exitY=0.5;exitDx=0;exitDy=0;entryX=0;entryY=0.5;entryDx=0;entryDy=0;" edge="1" parent="1" source="qp96KWpw2pJv_IqnviUn-16" target="qp96KWpw2pJv_IqnviUn-17">
          <mxGeometry width="50" height="50" relative="1" as="geometry">
            <mxPoint x="455.5" y="741" as="sourcePoint" />
            <mxPoint x="485.5" y="741" as="targetPoint" />
          </mxGeometry>
        </mxCell>
        <mxCell id="qp96KWpw2pJv_IqnviUn-23" value="&lt;font style=&quot;font-size: 10px;&quot;&gt;No&lt;/font&gt;" style="text;html=1;strokeColor=none;fillColor=none;align=center;verticalAlign=middle;whiteSpace=wrap;rounded=0;" vertex="1" parent="1">
          <mxGeometry x="210.5" y="711" width="30" height="10" as="geometry" />
        </mxCell>
        <mxCell id="qp96KWpw2pJv_IqnviUn-25" value="&lt;font style=&quot;font-size: 10px;&quot;&gt;No&lt;/font&gt;" style="text;html=1;strokeColor=none;fillColor=none;align=center;verticalAlign=middle;whiteSpace=wrap;rounded=0;" vertex="1" parent="1">
          <mxGeometry x="325.5" y="711" width="30" height="10" as="geometry" />
        </mxCell>
        <mxCell id="qp96KWpw2pJv_IqnviUn-26" value="&lt;font style=&quot;font-size: 10px;&quot;&gt;No&lt;/font&gt;" style="text;html=1;strokeColor=none;fillColor=none;align=center;verticalAlign=middle;whiteSpace=wrap;rounded=0;" vertex="1" parent="1">
          <mxGeometry x="435.5" y="711" width="30" height="10" as="geometry" />
        </mxCell>
        <mxCell id="qp96KWpw2pJv_IqnviUn-27" value="&lt;font style=&quot;font-size: 10px;&quot;&gt;No&lt;/font&gt;" style="text;html=1;strokeColor=none;fillColor=none;align=center;verticalAlign=middle;whiteSpace=wrap;rounded=0;" vertex="1" parent="1">
          <mxGeometry x="545.5" y="711" width="30" height="10" as="geometry" />
        </mxCell>
        <mxCell id="qp96KWpw2pJv_IqnviUn-29" value="" style="endArrow=classic;html=1;rounded=0;exitX=0.5;exitY=1;exitDx=0;exitDy=0;" edge="1" parent="1" source="qp96KWpw2pJv_IqnviUn-13">
          <mxGeometry width="50" height="50" relative="1" as="geometry">
            <mxPoint x="175.5" y="851" as="sourcePoint" />
            <mxPoint x="180.5" y="801" as="targetPoint" />
          </mxGeometry>
        </mxCell>
        <mxCell id="qp96KWpw2pJv_IqnviUn-30" value="&lt;font style=&quot;font-size: 10px;&quot;&gt;Sí&lt;/font&gt;" style="text;html=1;strokeColor=none;fillColor=none;align=center;verticalAlign=middle;whiteSpace=wrap;rounded=0;" vertex="1" parent="1">
          <mxGeometry x="180.5" y="771" width="30" height="10" as="geometry" />
        </mxCell>
        <mxCell id="qp96KWpw2pJv_IqnviUn-31" value="" style="endArrow=classic;html=1;rounded=0;exitX=0.5;exitY=1;exitDx=0;exitDy=0;" edge="1" parent="1">
          <mxGeometry width="50" height="50" relative="1" as="geometry">
            <mxPoint x="295.5" y="771" as="sourcePoint" />
            <mxPoint x="295.5" y="801" as="targetPoint" />
          </mxGeometry>
        </mxCell>
        <mxCell id="qp96KWpw2pJv_IqnviUn-32" value="&lt;font style=&quot;font-size: 10px;&quot;&gt;Sí&lt;/font&gt;" style="text;html=1;strokeColor=none;fillColor=none;align=center;verticalAlign=middle;whiteSpace=wrap;rounded=0;" vertex="1" parent="1">
          <mxGeometry x="295.5" y="771" width="30" height="10" as="geometry" />
        </mxCell>
        <mxCell id="qp96KWpw2pJv_IqnviUn-33" value="" style="endArrow=classic;html=1;rounded=0;exitX=0.5;exitY=1;exitDx=0;exitDy=0;" edge="1" parent="1">
          <mxGeometry width="50" height="50" relative="1" as="geometry">
            <mxPoint x="405.5" y="771" as="sourcePoint" />
            <mxPoint x="405.5" y="801" as="targetPoint" />
          </mxGeometry>
        </mxCell>
        <mxCell id="qp96KWpw2pJv_IqnviUn-34" value="&lt;font style=&quot;font-size: 10px;&quot;&gt;Sí&lt;/font&gt;" style="text;html=1;strokeColor=none;fillColor=none;align=center;verticalAlign=middle;whiteSpace=wrap;rounded=0;" vertex="1" parent="1">
          <mxGeometry x="405.5" y="771" width="30" height="10" as="geometry" />
        </mxCell>
        <mxCell id="qp96KWpw2pJv_IqnviUn-35" value="" style="endArrow=classic;html=1;rounded=0;exitX=0.5;exitY=1;exitDx=0;exitDy=0;" edge="1" parent="1">
          <mxGeometry width="50" height="50" relative="1" as="geometry">
            <mxPoint x="515.5" y="771" as="sourcePoint" />
            <mxPoint x="515.5" y="801" as="targetPoint" />
          </mxGeometry>
        </mxCell>
        <mxCell id="qp96KWpw2pJv_IqnviUn-36" value="&lt;font style=&quot;font-size: 10px;&quot;&gt;Sí&lt;/font&gt;" style="text;html=1;strokeColor=none;fillColor=none;align=center;verticalAlign=middle;whiteSpace=wrap;rounded=0;" vertex="1" parent="1">
          <mxGeometry x="515.5" y="771" width="30" height="10" as="geometry" />
        </mxCell>
        <mxCell id="qp96KWpw2pJv_IqnviUn-37" value="" style="endArrow=classic;html=1;rounded=0;exitX=0.5;exitY=1;exitDx=0;exitDy=0;" edge="1" parent="1">
          <mxGeometry width="50" height="50" relative="1" as="geometry">
            <mxPoint x="625.5" y="771" as="sourcePoint" />
            <mxPoint x="625.5" y="801" as="targetPoint" />
          </mxGeometry>
        </mxCell>
        <mxCell id="qp96KWpw2pJv_IqnviUn-38" value="&lt;font style=&quot;font-size: 10px;&quot;&gt;Sí&lt;/font&gt;" style="text;html=1;strokeColor=none;fillColor=none;align=center;verticalAlign=middle;whiteSpace=wrap;rounded=0;" vertex="1" parent="1">
          <mxGeometry x="625.5" y="771" width="30" height="10" as="geometry" />
        </mxCell>
        <mxCell id="qp96KWpw2pJv_IqnviUn-39" value="Cobra $25" style="rounded=1;whiteSpace=wrap;html=1;" vertex="1" parent="1">
          <mxGeometry x="138" y="801" width="85" height="30" as="geometry" />
        </mxCell>
        <mxCell id="qp96KWpw2pJv_IqnviUn-40" value="Cobra $120" style="rounded=1;whiteSpace=wrap;html=1;" vertex="1" parent="1">
          <mxGeometry x="253" y="801" width="85" height="30" as="geometry" />
        </mxCell>
        <mxCell id="qp96KWpw2pJv_IqnviUn-41" value="Cobra $320" style="rounded=1;whiteSpace=wrap;html=1;" vertex="1" parent="1">
          <mxGeometry x="363" y="801" width="85" height="30" as="geometry" />
        </mxCell>
        <mxCell id="qp96KWpw2pJv_IqnviUn-42" value="Cobra $800" style="rounded=1;whiteSpace=wrap;html=1;" vertex="1" parent="1">
          <mxGeometry x="473" y="801" width="85" height="30" as="geometry" />
        </mxCell>
        <mxCell id="qp96KWpw2pJv_IqnviUn-43" value="Cobra $2950" style="rounded=1;whiteSpace=wrap;html=1;" vertex="1" parent="1">
          <mxGeometry x="583" y="801" width="85" height="30" as="geometry" />
        </mxCell>
        <mxCell id="qp96KWpw2pJv_IqnviUn-44" value="" style="endArrow=none;html=1;rounded=0;entryX=0.5;entryY=1;entryDx=0;entryDy=0;exitX=1;exitY=0;exitDx=0;exitDy=0;" edge="1" parent="1" source="qp96KWpw2pJv_IqnviUn-9" target="qp96KWpw2pJv_IqnviUn-39">
          <mxGeometry width="50" height="50" relative="1" as="geometry">
            <mxPoint x="150" y="885" as="sourcePoint" />
            <mxPoint x="200" y="795" as="targetPoint" />
            <Array as="points">
              <mxPoint x="180" y="855" />
            </Array>
          </mxGeometry>
        </mxCell>
        <mxCell id="qp96KWpw2pJv_IqnviUn-45" value="Prob. de comprar una cantidad de productos" style="rounded=1;whiteSpace=wrap;html=1;" vertex="1" parent="1">
          <mxGeometry x="-135" y="965" width="120" height="60" as="geometry" />
        </mxCell>
        <mxCell id="qp96KWpw2pJv_IqnviUn-46" value="" style="endArrow=none;html=1;rounded=0;entryX=0.5;entryY=1;entryDx=0;entryDy=0;exitX=1;exitY=0.25;exitDx=0;exitDy=0;" edge="1" parent="1" source="qp96KWpw2pJv_IqnviUn-9" target="qp96KWpw2pJv_IqnviUn-40">
          <mxGeometry width="50" height="50" relative="1" as="geometry">
            <mxPoint x="150" y="925" as="sourcePoint" />
            <mxPoint x="310" y="785" as="targetPoint" />
            <Array as="points">
              <mxPoint x="294" y="870" />
            </Array>
          </mxGeometry>
        </mxCell>
        <mxCell id="qp96KWpw2pJv_IqnviUn-47" value="" style="endArrow=none;html=1;rounded=0;entryX=0.5;entryY=1;entryDx=0;entryDy=0;exitX=1;exitY=0.5;exitDx=0;exitDy=0;" edge="1" parent="1" source="qp96KWpw2pJv_IqnviUn-9" target="qp96KWpw2pJv_IqnviUn-41">
          <mxGeometry width="50" height="50" relative="1" as="geometry">
            <mxPoint x="420" y="865" as="sourcePoint" />
            <mxPoint x="419.71000000000004" y="785" as="targetPoint" />
            <Array as="points">
              <mxPoint x="404" y="885" />
            </Array>
          </mxGeometry>
        </mxCell>
        <mxCell id="qp96KWpw2pJv_IqnviUn-48" value="" style="endArrow=none;html=1;rounded=0;entryX=0.5;entryY=1;entryDx=0;entryDy=0;exitX=1;exitY=0.75;exitDx=0;exitDy=0;" edge="1" parent="1" source="qp96KWpw2pJv_IqnviUn-9" target="qp96KWpw2pJv_IqnviUn-42">
          <mxGeometry width="50" height="50" relative="1" as="geometry">
            <mxPoint x="530" y="905" as="sourcePoint" />
            <mxPoint x="530" y="785" as="targetPoint" />
            <Array as="points">
              <mxPoint x="514" y="900" />
            </Array>
          </mxGeometry>
        </mxCell>
        <mxCell id="qp96KWpw2pJv_IqnviUn-49" value="" style="endArrow=none;html=1;rounded=0;entryX=0.5;entryY=1;entryDx=0;entryDy=0;exitX=1;exitY=1;exitDx=0;exitDy=0;" edge="1" parent="1" source="qp96KWpw2pJv_IqnviUn-9" target="qp96KWpw2pJv_IqnviUn-43">
          <mxGeometry width="50" height="50" relative="1" as="geometry">
            <mxPoint x="-10" y="925" as="sourcePoint" />
            <mxPoint x="640" y="795" as="targetPoint" />
            <Array as="points">
              <mxPoint x="624" y="915" />
            </Array>
          </mxGeometry>
        </mxCell>
        <mxCell id="qp96KWpw2pJv_IqnviUn-50" value="" style="endArrow=classic;html=1;rounded=0;exitX=0.5;exitY=1;exitDx=0;exitDy=0;entryX=0.5;entryY=0;entryDx=0;entryDy=0;" edge="1" parent="1" source="qp96KWpw2pJv_IqnviUn-9" target="qp96KWpw2pJv_IqnviUn-45">
          <mxGeometry width="50" height="50" relative="1" as="geometry">
            <mxPoint x="90" y="995" as="sourcePoint" />
            <mxPoint x="140" y="945" as="targetPoint" />
          </mxGeometry>
        </mxCell>
        <mxCell id="qp96KWpw2pJv_IqnviUn-52" value="&lt;font style=&quot;font-size: 10px;&quot;&gt;¿Es un &lt;br&gt;usuario &lt;br&gt;o cliente?&lt;/font&gt;" style="rhombus;whiteSpace=wrap;html=1;" vertex="1" parent="1">
          <mxGeometry x="-118" y="1421" width="86" height="80" as="geometry" />
        </mxCell>
        <mxCell id="qp96KWpw2pJv_IqnviUn-228" style="edgeStyle=orthogonalEdgeStyle;rounded=0;orthogonalLoop=1;jettySize=auto;html=1;entryX=0.5;entryY=1;entryDx=0;entryDy=0;" edge="1" parent="1" source="qp96KWpw2pJv_IqnviUn-53" target="qp96KWpw2pJv_IqnviUn-94">
          <mxGeometry relative="1" as="geometry" />
        </mxCell>
        <mxCell id="qp96KWpw2pJv_IqnviUn-53" value="Usuario" style="rounded=1;whiteSpace=wrap;html=1;" vertex="1" parent="1">
          <mxGeometry x="-1" y="1441" width="90" height="40" as="geometry" />
        </mxCell>
        <mxCell id="qp96KWpw2pJv_IqnviUn-229" style="edgeStyle=orthogonalEdgeStyle;rounded=0;orthogonalLoop=1;jettySize=auto;html=1;entryX=0.5;entryY=1;entryDx=0;entryDy=0;" edge="1" parent="1" source="qp96KWpw2pJv_IqnviUn-54" target="qp96KWpw2pJv_IqnviUn-67">
          <mxGeometry relative="1" as="geometry">
            <mxPoint x="-320" y="1451" as="targetPoint" />
          </mxGeometry>
        </mxCell>
        <mxCell id="qp96KWpw2pJv_IqnviUn-54" value="Cliente" style="rounded=1;whiteSpace=wrap;html=1;" vertex="1" parent="1">
          <mxGeometry x="-247.5" y="1441" width="100" height="40" as="geometry" />
        </mxCell>
        <mxCell id="qp96KWpw2pJv_IqnviUn-55" value="" style="endArrow=classic;html=1;rounded=0;exitX=1;exitY=0.5;exitDx=0;exitDy=0;entryX=0;entryY=0.5;entryDx=0;entryDy=0;" edge="1" parent="1" source="qp96KWpw2pJv_IqnviUn-52" target="qp96KWpw2pJv_IqnviUn-53">
          <mxGeometry width="50" height="50" relative="1" as="geometry">
            <mxPoint x="-63.5" y="1406" as="sourcePoint" />
            <mxPoint x="-63.5" y="1446" as="targetPoint" />
          </mxGeometry>
        </mxCell>
        <mxCell id="qp96KWpw2pJv_IqnviUn-56" value="" style="endArrow=classic;html=1;rounded=0;entryX=1;entryY=0.5;entryDx=0;entryDy=0;exitX=0;exitY=0.5;exitDx=0;exitDy=0;" edge="1" parent="1" source="qp96KWpw2pJv_IqnviUn-52" target="qp96KWpw2pJv_IqnviUn-54">
          <mxGeometry width="50" height="50" relative="1" as="geometry">
            <mxPoint x="-137.5" y="1551" as="sourcePoint" />
            <mxPoint x="-87.5" y="1501" as="targetPoint" />
          </mxGeometry>
        </mxCell>
        <mxCell id="qp96KWpw2pJv_IqnviUn-58" value="Inicio" style="ellipse;whiteSpace=wrap;html=1;" vertex="1" parent="1">
          <mxGeometry x="14" y="160" width="90" height="60" as="geometry" />
        </mxCell>
        <mxCell id="qp96KWpw2pJv_IqnviUn-59" value="" style="endArrow=classic;html=1;rounded=0;exitX=0.5;exitY=1;exitDx=0;exitDy=0;entryX=0.5;entryY=0;entryDx=0;entryDy=0;" edge="1" parent="1" source="qp96KWpw2pJv_IqnviUn-58" target="qp96KWpw2pJv_IqnviUn-1">
          <mxGeometry width="50" height="50" relative="1" as="geometry">
            <mxPoint x="130" y="290" as="sourcePoint" />
            <mxPoint x="130" y="220" as="targetPoint" />
          </mxGeometry>
        </mxCell>
        <mxCell id="qp96KWpw2pJv_IqnviUn-62" value="" style="endArrow=classic;html=1;rounded=0;entryX=0.5;entryY=1;entryDx=0;entryDy=0;exitX=0.5;exitY=0;exitDx=0;exitDy=0;" edge="1" parent="1" source="qp96KWpw2pJv_IqnviUn-67" target="qp96KWpw2pJv_IqnviUn-63">
          <mxGeometry width="50" height="50" relative="1" as="geometry">
            <mxPoint x="-335" y="1030" as="sourcePoint" />
            <mxPoint x="-330" y="640" as="targetPoint" />
          </mxGeometry>
        </mxCell>
        <mxCell id="qp96KWpw2pJv_IqnviUn-63" value="SIguiente individuo" style="rounded=1;whiteSpace=wrap;html=1;" vertex="1" parent="1">
          <mxGeometry x="-395" y="385" width="120" height="60" as="geometry" />
        </mxCell>
        <mxCell id="qp96KWpw2pJv_IqnviUn-64" value="" style="endArrow=classic;html=1;rounded=0;exitX=0.5;exitY=1;exitDx=0;exitDy=0;entryX=0.5;entryY=0;entryDx=0;entryDy=0;" edge="1" parent="1" source="qp96KWpw2pJv_IqnviUn-45" target="qp96KWpw2pJv_IqnviUn-72">
          <mxGeometry width="50" height="50" relative="1" as="geometry">
            <mxPoint x="-80" y="1220" as="sourcePoint" />
            <mxPoint x="-20" y="1050" as="targetPoint" />
          </mxGeometry>
        </mxCell>
        <mxCell id="qp96KWpw2pJv_IqnviUn-65" value="" style="endArrow=classic;html=1;rounded=0;exitX=1;exitY=0.5;exitDx=0;exitDy=0;entryX=0;entryY=0.5;entryDx=0;entryDy=0;" edge="1" parent="1" source="qp96KWpw2pJv_IqnviUn-63" target="qp96KWpw2pJv_IqnviUn-2">
          <mxGeometry width="50" height="50" relative="1" as="geometry">
            <mxPoint x="-220" y="420" as="sourcePoint" />
            <mxPoint x="-170" y="370" as="targetPoint" />
          </mxGeometry>
        </mxCell>
        <mxCell id="qp96KWpw2pJv_IqnviUn-66" value="Fin" style="ellipse;whiteSpace=wrap;html=1;" vertex="1" parent="1">
          <mxGeometry x="-640" y="1240" width="90" height="60" as="geometry" />
        </mxCell>
        <mxCell id="qp96KWpw2pJv_IqnviUn-67" value="&lt;font style=&quot;font-size: 10px;&quot;&gt;Hay más personas?&lt;br&gt;&lt;/font&gt;" style="rhombus;whiteSpace=wrap;html=1;" vertex="1" parent="1">
          <mxGeometry x="-378" y="1230" width="86" height="80" as="geometry" />
        </mxCell>
        <mxCell id="qp96KWpw2pJv_IqnviUn-68" value="" style="endArrow=classic;html=1;rounded=0;exitX=0;exitY=0.5;exitDx=0;exitDy=0;entryX=1;entryY=0.5;entryDx=0;entryDy=0;" edge="1" parent="1" source="qp96KWpw2pJv_IqnviUn-67" target="qp96KWpw2pJv_IqnviUn-79">
          <mxGeometry width="50" height="50" relative="1" as="geometry">
            <mxPoint x="-237" y="1280" as="sourcePoint" />
            <mxPoint x="-410" y="1270" as="targetPoint" />
          </mxGeometry>
        </mxCell>
        <mxCell id="qp96KWpw2pJv_IqnviUn-69" value="&lt;font style=&quot;font-size: 10px;&quot;&gt;No&lt;/font&gt;" style="text;html=1;strokeColor=none;fillColor=none;align=center;verticalAlign=middle;whiteSpace=wrap;rounded=0;" vertex="1" parent="1">
          <mxGeometry x="-400" y="1250" width="30" height="10" as="geometry" />
        </mxCell>
        <mxCell id="qp96KWpw2pJv_IqnviUn-70" value="&lt;font style=&quot;font-size: 10px;&quot;&gt;Sí&lt;/font&gt;" style="text;html=1;strokeColor=none;fillColor=none;align=center;verticalAlign=middle;whiteSpace=wrap;rounded=0;" vertex="1" parent="1">
          <mxGeometry x="-330" y="1220" width="20" height="10" as="geometry" />
        </mxCell>
        <mxCell id="qp96KWpw2pJv_IqnviUn-72" value="Escoge algún tipo de producto" style="rounded=1;whiteSpace=wrap;html=1;" vertex="1" parent="1">
          <mxGeometry x="-127.5" y="1070" width="105" height="40" as="geometry" />
        </mxCell>
        <mxCell id="qp96KWpw2pJv_IqnviUn-74" value="Se cobran los productos" style="rounded=1;whiteSpace=wrap;html=1;" vertex="1" parent="1">
          <mxGeometry x="-127.5" y="1150" width="105" height="40" as="geometry" />
        </mxCell>
        <mxCell id="qp96KWpw2pJv_IqnviUn-75" value="" style="endArrow=classic;html=1;rounded=0;exitX=0.5;exitY=1;exitDx=0;exitDy=0;entryX=0.5;entryY=0;entryDx=0;entryDy=0;" edge="1" parent="1" source="qp96KWpw2pJv_IqnviUn-72" target="qp96KWpw2pJv_IqnviUn-74">
          <mxGeometry width="50" height="50" relative="1" as="geometry">
            <mxPoint x="-10" y="1160" as="sourcePoint" />
            <mxPoint x="40" y="1110" as="targetPoint" />
          </mxGeometry>
        </mxCell>
        <mxCell id="qp96KWpw2pJv_IqnviUn-78" value="" style="endArrow=classic;html=1;rounded=0;exitX=0.5;exitY=1;exitDx=0;exitDy=0;entryX=0.5;entryY=0;entryDx=0;entryDy=0;" edge="1" parent="1" source="qp96KWpw2pJv_IqnviUn-74" target="qp96KWpw2pJv_IqnviUn-230">
          <mxGeometry width="50" height="50" relative="1" as="geometry">
            <mxPoint x="10" y="1200" as="sourcePoint" />
            <mxPoint x="-75" y="1261" as="targetPoint" />
          </mxGeometry>
        </mxCell>
        <mxCell id="qp96KWpw2pJv_IqnviUn-79" value="&lt;font style=&quot;font-size: 10px;&quot;&gt;Fin de las iteraciones?&lt;br&gt;&lt;/font&gt;" style="rhombus;whiteSpace=wrap;html=1;" vertex="1" parent="1">
          <mxGeometry x="-510" y="1230" width="86" height="80" as="geometry" />
        </mxCell>
        <mxCell id="qp96KWpw2pJv_IqnviUn-80" value="&lt;font style=&quot;font-size: 10px;&quot;&gt;Sí&lt;/font&gt;" style="text;html=1;strokeColor=none;fillColor=none;align=center;verticalAlign=middle;whiteSpace=wrap;rounded=0;" vertex="1" parent="1">
          <mxGeometry x="-520" y="1250" width="20" height="10" as="geometry" />
        </mxCell>
        <mxCell id="qp96KWpw2pJv_IqnviUn-81" value="" style="endArrow=classic;html=1;rounded=0;exitX=0;exitY=0.5;exitDx=0;exitDy=0;entryX=1;entryY=0.5;entryDx=0;entryDy=0;" edge="1" parent="1" source="qp96KWpw2pJv_IqnviUn-79" target="qp96KWpw2pJv_IqnviUn-66">
          <mxGeometry width="50" height="50" relative="1" as="geometry">
            <mxPoint x="-570" y="1240" as="sourcePoint" />
            <mxPoint x="-520" y="1190" as="targetPoint" />
          </mxGeometry>
        </mxCell>
        <mxCell id="qp96KWpw2pJv_IqnviUn-82" value="" style="endArrow=classic;html=1;rounded=0;exitX=0.5;exitY=0;exitDx=0;exitDy=0;entryX=0;entryY=0.5;entryDx=0;entryDy=0;" edge="1" parent="1" source="qp96KWpw2pJv_IqnviUn-79" target="qp96KWpw2pJv_IqnviUn-1">
          <mxGeometry width="50" height="50" relative="1" as="geometry">
            <mxPoint x="-467.31" y="1215" as="sourcePoint" />
            <mxPoint x="-430" y="260" as="targetPoint" />
            <Array as="points">
              <mxPoint x="-470" y="290" />
            </Array>
          </mxGeometry>
        </mxCell>
        <mxCell id="qp96KWpw2pJv_IqnviUn-83" value="&lt;font style=&quot;font-size: 10px;&quot;&gt;No&lt;/font&gt;" style="text;html=1;strokeColor=none;fillColor=none;align=center;verticalAlign=middle;whiteSpace=wrap;rounded=0;" vertex="1" parent="1">
          <mxGeometry x="-460" y="1220" width="20" height="10" as="geometry" />
        </mxCell>
        <mxCell id="qp96KWpw2pJv_IqnviUn-110" value="" style="edgeStyle=orthogonalEdgeStyle;rounded=0;orthogonalLoop=1;jettySize=auto;html=1;" edge="1" parent="1" source="qp96KWpw2pJv_IqnviUn-84" target="qp96KWpw2pJv_IqnviUn-109">
          <mxGeometry relative="1" as="geometry" />
        </mxCell>
        <mxCell id="qp96KWpw2pJv_IqnviUn-84" value="Prob. de entrenar en un área especfífica" style="rounded=1;whiteSpace=wrap;html=1;" vertex="1" parent="1">
          <mxGeometry x="293" y="1190" width="120" height="60" as="geometry" />
        </mxCell>
        <mxCell id="qp96KWpw2pJv_IqnviUn-142" value="" style="edgeStyle=orthogonalEdgeStyle;rounded=0;orthogonalLoop=1;jettySize=auto;html=1;entryX=0.5;entryY=0;entryDx=0;entryDy=0;" edge="1" parent="1" source="qp96KWpw2pJv_IqnviUn-86" target="qp96KWpw2pJv_IqnviUn-143">
          <mxGeometry relative="1" as="geometry">
            <mxPoint x="1130" y="1591" as="targetPoint" />
          </mxGeometry>
        </mxCell>
        <mxCell id="qp96KWpw2pJv_IqnviUn-86" value="Prob de que al terminar el ejercicio vaya al baño" style="rounded=1;whiteSpace=wrap;html=1;" vertex="1" parent="1">
          <mxGeometry x="1050" y="1461" width="160" height="60" as="geometry" />
        </mxCell>
        <mxCell id="qp96KWpw2pJv_IqnviUn-112" style="edgeStyle=orthogonalEdgeStyle;rounded=0;orthogonalLoop=1;jettySize=auto;html=1;entryX=0.5;entryY=1;entryDx=0;entryDy=0;" edge="1" parent="1" source="qp96KWpw2pJv_IqnviUn-87" target="qp96KWpw2pJv_IqnviUn-118">
          <mxGeometry relative="1" as="geometry">
            <mxPoint x="724.4999999999995" y="1211" as="targetPoint" />
          </mxGeometry>
        </mxCell>
        <mxCell id="qp96KWpw2pJv_IqnviUn-87" value="Prob. de hacer una cantidad de ejercicios" style="rounded=1;whiteSpace=wrap;html=1;" vertex="1" parent="1">
          <mxGeometry x="520" y="1330" width="120" height="60" as="geometry" />
        </mxCell>
        <mxCell id="qp96KWpw2pJv_IqnviUn-121" style="edgeStyle=orthogonalEdgeStyle;rounded=0;orthogonalLoop=1;jettySize=auto;html=1;entryX=0.5;entryY=0;entryDx=0;entryDy=0;" edge="1" parent="1" source="qp96KWpw2pJv_IqnviUn-89" target="qp96KWpw2pJv_IqnviUn-119">
          <mxGeometry relative="1" as="geometry" />
        </mxCell>
        <mxCell id="qp96KWpw2pJv_IqnviUn-89" value="Comienza ejercicio" style="rounded=1;whiteSpace=wrap;html=1;" vertex="1" parent="1">
          <mxGeometry x="654" y="1001" width="120" height="60" as="geometry" />
        </mxCell>
        <mxCell id="qp96KWpw2pJv_IqnviUn-96" value="" style="edgeStyle=orthogonalEdgeStyle;rounded=0;orthogonalLoop=1;jettySize=auto;html=1;" edge="1" parent="1" source="qp96KWpw2pJv_IqnviUn-91" target="qp96KWpw2pJv_IqnviUn-94">
          <mxGeometry relative="1" as="geometry" />
        </mxCell>
        <mxCell id="qp96KWpw2pJv_IqnviUn-91" value="Prob. de tardar un tiempo calentando" style="rounded=1;whiteSpace=wrap;html=1;" vertex="1" parent="1">
          <mxGeometry x="104" y="960" width="120" height="60" as="geometry" />
        </mxCell>
        <mxCell id="qp96KWpw2pJv_IqnviUn-93" value="" style="endArrow=classic;html=1;rounded=0;entryX=0.5;entryY=1;entryDx=0;entryDy=0;exitX=0.5;exitY=0;exitDx=0;exitDy=0;" edge="1" parent="1" source="qp96KWpw2pJv_IqnviUn-94" target="qp96KWpw2pJv_IqnviUn-91">
          <mxGeometry width="50" height="50" relative="1" as="geometry">
            <mxPoint x="164" y="1050" as="sourcePoint" />
            <mxPoint x="164" y="1020" as="targetPoint" />
          </mxGeometry>
        </mxCell>
        <mxCell id="qp96KWpw2pJv_IqnviUn-94" value="Prob. de escoger material para su calentamiento" style="rounded=1;whiteSpace=wrap;html=1;" vertex="1" parent="1">
          <mxGeometry x="104" y="1070" width="120" height="60" as="geometry" />
        </mxCell>
        <mxCell id="qp96KWpw2pJv_IqnviUn-97" value="Prob. de hacer cardio antes de comenzar" style="rounded=1;whiteSpace=wrap;html=1;" vertex="1" parent="1">
          <mxGeometry x="293" y="960" width="120" height="60" as="geometry" />
        </mxCell>
        <mxCell id="qp96KWpw2pJv_IqnviUn-98" value="Hará cardio?" style="rhombus;whiteSpace=wrap;html=1;" vertex="1" parent="1">
          <mxGeometry x="310" y="1070" width="86" height="80" as="geometry" />
        </mxCell>
        <mxCell id="qp96KWpw2pJv_IqnviUn-99" value="Prob. de escoger una máquina del área de cardio" style="rounded=1;whiteSpace=wrap;html=1;" vertex="1" parent="1">
          <mxGeometry x="461.5" y="1080" width="120" height="60" as="geometry" />
        </mxCell>
        <mxCell id="qp96KWpw2pJv_IqnviUn-100" value="" style="endArrow=classic;html=1;rounded=0;entryX=0;entryY=0.5;entryDx=0;entryDy=0;exitX=1;exitY=0.5;exitDx=0;exitDy=0;" edge="1" parent="1" source="qp96KWpw2pJv_IqnviUn-91" target="qp96KWpw2pJv_IqnviUn-97">
          <mxGeometry width="50" height="50" relative="1" as="geometry">
            <mxPoint x="240" y="1050" as="sourcePoint" />
            <mxPoint x="290" y="1000" as="targetPoint" />
          </mxGeometry>
        </mxCell>
        <mxCell id="qp96KWpw2pJv_IqnviUn-101" value="" style="endArrow=classic;html=1;rounded=0;exitX=0.5;exitY=1;exitDx=0;exitDy=0;entryX=0.5;entryY=0;entryDx=0;entryDy=0;" edge="1" parent="1" source="qp96KWpw2pJv_IqnviUn-97" target="qp96KWpw2pJv_IqnviUn-98">
          <mxGeometry width="50" height="50" relative="1" as="geometry">
            <mxPoint x="260" y="1100" as="sourcePoint" />
            <mxPoint x="310" y="1050" as="targetPoint" />
          </mxGeometry>
        </mxCell>
        <mxCell id="qp96KWpw2pJv_IqnviUn-102" value="" style="endArrow=classic;html=1;rounded=0;entryX=0;entryY=0.5;entryDx=0;entryDy=0;exitX=1;exitY=0.5;exitDx=0;exitDy=0;" edge="1" parent="1" source="qp96KWpw2pJv_IqnviUn-98" target="qp96KWpw2pJv_IqnviUn-99">
          <mxGeometry width="50" height="50" relative="1" as="geometry">
            <mxPoint x="240" y="1150" as="sourcePoint" />
            <mxPoint x="290" y="1100" as="targetPoint" />
          </mxGeometry>
        </mxCell>
        <mxCell id="qp96KWpw2pJv_IqnviUn-103" value="" style="endArrow=classic;html=1;rounded=0;exitX=0.5;exitY=1;exitDx=0;exitDy=0;entryX=0.5;entryY=0;entryDx=0;entryDy=0;" edge="1" parent="1" source="qp96KWpw2pJv_IqnviUn-98" target="qp96KWpw2pJv_IqnviUn-84">
          <mxGeometry width="50" height="50" relative="1" as="geometry">
            <mxPoint x="240" y="1200" as="sourcePoint" />
            <mxPoint x="290" y="1150" as="targetPoint" />
          </mxGeometry>
        </mxCell>
        <mxCell id="qp96KWpw2pJv_IqnviUn-104" value="" style="endArrow=classic;html=1;rounded=0;entryX=1;entryY=0.5;entryDx=0;entryDy=0;exitX=0.5;exitY=1;exitDx=0;exitDy=0;" edge="1" parent="1" source="qp96KWpw2pJv_IqnviUn-99" target="qp96KWpw2pJv_IqnviUn-84">
          <mxGeometry width="50" height="50" relative="1" as="geometry">
            <mxPoint x="510" y="1250" as="sourcePoint" />
            <mxPoint x="560" y="1200" as="targetPoint" />
            <Array as="points">
              <mxPoint x="522" y="1220" />
            </Array>
          </mxGeometry>
        </mxCell>
        <mxCell id="qp96KWpw2pJv_IqnviUn-105" value="&lt;font style=&quot;font-size: 10px;&quot;&gt;Sí&lt;/font&gt;" style="text;html=1;strokeColor=none;fillColor=none;align=center;verticalAlign=middle;whiteSpace=wrap;rounded=0;" vertex="1" parent="1">
          <mxGeometry x="393" y="1090" width="20" height="10" as="geometry" />
        </mxCell>
        <mxCell id="qp96KWpw2pJv_IqnviUn-106" value="&lt;font style=&quot;font-size: 10px;&quot;&gt;No&lt;/font&gt;" style="text;html=1;strokeColor=none;fillColor=none;align=center;verticalAlign=middle;whiteSpace=wrap;rounded=0;" vertex="1" parent="1">
          <mxGeometry x="364" y="1150" width="20" height="10" as="geometry" />
        </mxCell>
        <mxCell id="qp96KWpw2pJv_IqnviUn-111" style="edgeStyle=orthogonalEdgeStyle;rounded=0;orthogonalLoop=1;jettySize=auto;html=1;entryX=0;entryY=0.5;entryDx=0;entryDy=0;" edge="1" parent="1" source="qp96KWpw2pJv_IqnviUn-109" target="qp96KWpw2pJv_IqnviUn-87">
          <mxGeometry relative="1" as="geometry" />
        </mxCell>
        <mxCell id="qp96KWpw2pJv_IqnviUn-109" value="Prob. de entrenar en un área del gimnasio" style="whiteSpace=wrap;html=1;rounded=1;" vertex="1" parent="1">
          <mxGeometry x="293" y="1330" width="120" height="60" as="geometry" />
        </mxCell>
        <mxCell id="qp96KWpw2pJv_IqnviUn-120" style="edgeStyle=orthogonalEdgeStyle;rounded=0;orthogonalLoop=1;jettySize=auto;html=1;entryX=0.5;entryY=1;entryDx=0;entryDy=0;" edge="1" parent="1" source="qp96KWpw2pJv_IqnviUn-118" target="qp96KWpw2pJv_IqnviUn-89">
          <mxGeometry relative="1" as="geometry" />
        </mxCell>
        <mxCell id="qp96KWpw2pJv_IqnviUn-118" value="Prob. de usar una máquina del área donde va a entrenar" style="rounded=1;whiteSpace=wrap;html=1;" vertex="1" parent="1">
          <mxGeometry x="654" y="1160" width="120" height="60" as="geometry" />
        </mxCell>
        <mxCell id="qp96KWpw2pJv_IqnviUn-185" value="" style="edgeStyle=orthogonalEdgeStyle;rounded=0;orthogonalLoop=1;jettySize=auto;html=1;" edge="1" parent="1" source="qp96KWpw2pJv_IqnviUn-119" target="qp96KWpw2pJv_IqnviUn-184">
          <mxGeometry relative="1" as="geometry" />
        </mxCell>
        <mxCell id="qp96KWpw2pJv_IqnviUn-119" value="Prob. de tardar determinado tiempo en la máquina" style="rounded=1;whiteSpace=wrap;html=1;" vertex="1" parent="1">
          <mxGeometry x="890" y="1065" width="120" height="60" as="geometry" />
        </mxCell>
        <mxCell id="qp96KWpw2pJv_IqnviUn-129" style="edgeStyle=orthogonalEdgeStyle;rounded=0;orthogonalLoop=1;jettySize=auto;html=1;entryX=0.5;entryY=0;entryDx=0;entryDy=0;" edge="1" parent="1" source="qp96KWpw2pJv_IqnviUn-122" target="qp96KWpw2pJv_IqnviUn-124">
          <mxGeometry relative="1" as="geometry" />
        </mxCell>
        <mxCell id="qp96KWpw2pJv_IqnviUn-122" value="Prob. de que se dañe la máquina" style="whiteSpace=wrap;html=1;rounded=1;" vertex="1" parent="1">
          <mxGeometry x="1070" y="1150" width="120" height="60" as="geometry" />
        </mxCell>
        <mxCell id="qp96KWpw2pJv_IqnviUn-130" style="edgeStyle=orthogonalEdgeStyle;rounded=0;orthogonalLoop=1;jettySize=auto;html=1;entryX=0;entryY=0.5;entryDx=0;entryDy=0;" edge="1" parent="1" source="qp96KWpw2pJv_IqnviUn-124" target="qp96KWpw2pJv_IqnviUn-126">
          <mxGeometry relative="1" as="geometry" />
        </mxCell>
        <mxCell id="qp96KWpw2pJv_IqnviUn-133" style="edgeStyle=orthogonalEdgeStyle;rounded=0;orthogonalLoop=1;jettySize=auto;html=1;entryX=0.5;entryY=0;entryDx=0;entryDy=0;" edge="1" parent="1" source="qp96KWpw2pJv_IqnviUn-124" target="qp96KWpw2pJv_IqnviUn-138">
          <mxGeometry relative="1" as="geometry">
            <mxPoint x="1130" y="1341" as="targetPoint" />
          </mxGeometry>
        </mxCell>
        <mxCell id="qp96KWpw2pJv_IqnviUn-124" value="Se dañó?" style="rhombus;whiteSpace=wrap;html=1;" vertex="1" parent="1">
          <mxGeometry x="1090" y="1240" width="80" height="80" as="geometry" />
        </mxCell>
        <mxCell id="qp96KWpw2pJv_IqnviUn-125" value="&lt;font style=&quot;font-size: 10px;&quot;&gt;Sí&lt;/font&gt;" style="text;html=1;strokeColor=none;fillColor=none;align=center;verticalAlign=middle;whiteSpace=wrap;rounded=0;" vertex="1" parent="1">
          <mxGeometry x="1171" y="1260" width="20" height="10" as="geometry" />
        </mxCell>
        <mxCell id="qp96KWpw2pJv_IqnviUn-132" style="edgeStyle=orthogonalEdgeStyle;rounded=0;orthogonalLoop=1;jettySize=auto;html=1;entryX=0.5;entryY=0;entryDx=0;entryDy=0;" edge="1" parent="1" source="qp96KWpw2pJv_IqnviUn-126" target="qp96KWpw2pJv_IqnviUn-131">
          <mxGeometry relative="1" as="geometry" />
        </mxCell>
        <mxCell id="qp96KWpw2pJv_IqnviUn-126" value="Llama al reparador y se hace el pago" style="rounded=1;whiteSpace=wrap;html=1;" vertex="1" parent="1">
          <mxGeometry x="1320" y="1250" width="120" height="60" as="geometry" />
        </mxCell>
        <mxCell id="qp96KWpw2pJv_IqnviUn-127" value="&lt;font style=&quot;font-size: 10px;&quot;&gt;No&lt;/font&gt;" style="text;html=1;strokeColor=none;fillColor=none;align=center;verticalAlign=middle;whiteSpace=wrap;rounded=0;" vertex="1" parent="1">
          <mxGeometry x="1150" y="1310" width="20" height="10" as="geometry" />
        </mxCell>
        <mxCell id="qp96KWpw2pJv_IqnviUn-137" style="edgeStyle=orthogonalEdgeStyle;rounded=0;orthogonalLoop=1;jettySize=auto;html=1;entryX=1;entryY=0.5;entryDx=0;entryDy=0;" edge="1" parent="1" source="qp96KWpw2pJv_IqnviUn-128" target="qp96KWpw2pJv_IqnviUn-118">
          <mxGeometry relative="1" as="geometry" />
        </mxCell>
        <mxCell id="qp96KWpw2pJv_IqnviUn-154" style="edgeStyle=orthogonalEdgeStyle;rounded=0;orthogonalLoop=1;jettySize=auto;html=1;entryX=0.5;entryY=0;entryDx=0;entryDy=0;" edge="1" parent="1" source="qp96KWpw2pJv_IqnviUn-128" target="qp96KWpw2pJv_IqnviUn-153">
          <mxGeometry relative="1" as="geometry" />
        </mxCell>
        <mxCell id="qp96KWpw2pJv_IqnviUn-128" value="Le quedan ejercicios?" style="rhombus;whiteSpace=wrap;html=1;" vertex="1" parent="1">
          <mxGeometry x="1090" y="1691" width="80" height="80" as="geometry" />
        </mxCell>
        <mxCell id="qp96KWpw2pJv_IqnviUn-135" style="edgeStyle=orthogonalEdgeStyle;rounded=0;orthogonalLoop=1;jettySize=auto;html=1;entryX=1;entryY=0.5;entryDx=0;entryDy=0;" edge="1" parent="1" source="qp96KWpw2pJv_IqnviUn-131" target="qp96KWpw2pJv_IqnviUn-138">
          <mxGeometry relative="1" as="geometry">
            <mxPoint x="1210" y="1391" as="targetPoint" />
          </mxGeometry>
        </mxCell>
        <mxCell id="qp96KWpw2pJv_IqnviUn-131" value="Se suspende la máquina durante ese día" style="rounded=1;whiteSpace=wrap;html=1;" vertex="1" parent="1">
          <mxGeometry x="1320" y="1361" width="120" height="60" as="geometry" />
        </mxCell>
        <mxCell id="qp96KWpw2pJv_IqnviUn-136" value="&lt;font style=&quot;font-size: 10px;&quot;&gt;Sí&lt;/font&gt;" style="text;html=1;strokeColor=none;fillColor=none;align=center;verticalAlign=middle;whiteSpace=wrap;rounded=0;" vertex="1" parent="1">
          <mxGeometry x="1080" y="1711" width="20" height="10" as="geometry" />
        </mxCell>
        <mxCell id="qp96KWpw2pJv_IqnviUn-139" style="edgeStyle=orthogonalEdgeStyle;rounded=0;orthogonalLoop=1;jettySize=auto;html=1;entryX=0.5;entryY=0;entryDx=0;entryDy=0;" edge="1" parent="1" source="qp96KWpw2pJv_IqnviUn-138" target="qp96KWpw2pJv_IqnviUn-86">
          <mxGeometry relative="1" as="geometry" />
        </mxCell>
        <mxCell id="qp96KWpw2pJv_IqnviUn-138" value="Termina el ejercicio" style="rounded=1;whiteSpace=wrap;html=1;" vertex="1" parent="1">
          <mxGeometry x="1070" y="1361" width="120" height="60" as="geometry" />
        </mxCell>
        <mxCell id="qp96KWpw2pJv_IqnviUn-146" style="edgeStyle=orthogonalEdgeStyle;rounded=0;orthogonalLoop=1;jettySize=auto;html=1;entryX=0;entryY=0.5;entryDx=0;entryDy=0;" edge="1" parent="1" source="qp96KWpw2pJv_IqnviUn-143" target="qp96KWpw2pJv_IqnviUn-145">
          <mxGeometry relative="1" as="geometry" />
        </mxCell>
        <mxCell id="qp96KWpw2pJv_IqnviUn-150" style="edgeStyle=orthogonalEdgeStyle;rounded=0;orthogonalLoop=1;jettySize=auto;html=1;entryX=0.5;entryY=0;entryDx=0;entryDy=0;" edge="1" parent="1" source="qp96KWpw2pJv_IqnviUn-143" target="qp96KWpw2pJv_IqnviUn-128">
          <mxGeometry relative="1" as="geometry" />
        </mxCell>
        <mxCell id="qp96KWpw2pJv_IqnviUn-143" value="Va o no va?" style="rhombus;whiteSpace=wrap;html=1;" vertex="1" parent="1">
          <mxGeometry x="1090" y="1571" width="80" height="80" as="geometry" />
        </mxCell>
        <mxCell id="qp96KWpw2pJv_IqnviUn-144" value="&lt;font style=&quot;font-size: 10px;&quot;&gt;Sí&lt;/font&gt;" style="text;html=1;strokeColor=none;fillColor=none;align=center;verticalAlign=middle;whiteSpace=wrap;rounded=0;" vertex="1" parent="1">
          <mxGeometry x="1161" y="1591" width="20" height="10" as="geometry" />
        </mxCell>
        <mxCell id="qp96KWpw2pJv_IqnviUn-149" value="" style="edgeStyle=orthogonalEdgeStyle;rounded=0;orthogonalLoop=1;jettySize=auto;html=1;" edge="1" parent="1" source="qp96KWpw2pJv_IqnviUn-145" target="qp96KWpw2pJv_IqnviUn-148">
          <mxGeometry relative="1" as="geometry" />
        </mxCell>
        <mxCell id="qp96KWpw2pJv_IqnviUn-145" value="Prob. de tardar un tiempo en el baño" style="rounded=1;whiteSpace=wrap;html=1;" vertex="1" parent="1">
          <mxGeometry x="1220" y="1581" width="120" height="60" as="geometry" />
        </mxCell>
        <mxCell id="qp96KWpw2pJv_IqnviUn-158" style="edgeStyle=orthogonalEdgeStyle;rounded=0;orthogonalLoop=1;jettySize=auto;html=1;entryX=1;entryY=0.5;entryDx=0;entryDy=0;exitX=0.5;exitY=1;exitDx=0;exitDy=0;" edge="1" parent="1" source="qp96KWpw2pJv_IqnviUn-148" target="qp96KWpw2pJv_IqnviUn-128">
          <mxGeometry relative="1" as="geometry" />
        </mxCell>
        <mxCell id="qp96KWpw2pJv_IqnviUn-148" value="Sale del baño" style="whiteSpace=wrap;html=1;rounded=1;" vertex="1" parent="1">
          <mxGeometry x="1420" y="1581" width="120" height="60" as="geometry" />
        </mxCell>
        <mxCell id="qp96KWpw2pJv_IqnviUn-151" value="&lt;font style=&quot;font-size: 10px;&quot;&gt;No&lt;/font&gt;" style="text;html=1;strokeColor=none;fillColor=none;align=center;verticalAlign=middle;whiteSpace=wrap;rounded=0;" vertex="1" parent="1">
          <mxGeometry x="1141" y="1761" width="20" height="10" as="geometry" />
        </mxCell>
        <mxCell id="qp96KWpw2pJv_IqnviUn-152" value="&lt;font style=&quot;font-size: 10px;&quot;&gt;No&lt;/font&gt;" style="text;html=1;strokeColor=none;fillColor=none;align=center;verticalAlign=middle;whiteSpace=wrap;rounded=0;" vertex="1" parent="1">
          <mxGeometry x="1141" y="1641" width="20" height="10" as="geometry" />
        </mxCell>
        <mxCell id="qp96KWpw2pJv_IqnviUn-157" value="" style="edgeStyle=orthogonalEdgeStyle;rounded=0;orthogonalLoop=1;jettySize=auto;html=1;entryX=0.488;entryY=0.068;entryDx=0;entryDy=0;entryPerimeter=0;" edge="1" parent="1" source="qp96KWpw2pJv_IqnviUn-153" target="qp96KWpw2pJv_IqnviUn-177">
          <mxGeometry relative="1" as="geometry">
            <mxPoint x="1130" y="1901" as="targetPoint" />
          </mxGeometry>
        </mxCell>
        <mxCell id="qp96KWpw2pJv_IqnviUn-153" value="Prob. de que se duche" style="rounded=1;whiteSpace=wrap;html=1;" vertex="1" parent="1">
          <mxGeometry x="1070" y="1801" width="120" height="60" as="geometry" />
        </mxCell>
        <mxCell id="qp96KWpw2pJv_IqnviUn-161" value="" style="edgeStyle=orthogonalEdgeStyle;rounded=0;orthogonalLoop=1;jettySize=auto;html=1;" edge="1" parent="1" source="qp96KWpw2pJv_IqnviUn-156" target="qp96KWpw2pJv_IqnviUn-160">
          <mxGeometry relative="1" as="geometry" />
        </mxCell>
        <mxCell id="qp96KWpw2pJv_IqnviUn-156" value="Prob. de tardar un tiempo en la ducha" style="whiteSpace=wrap;html=1;rounded=1;" vertex="1" parent="1">
          <mxGeometry x="1220" y="1911" width="120" height="60" as="geometry" />
        </mxCell>
        <mxCell id="qp96KWpw2pJv_IqnviUn-163" value="" style="edgeStyle=orthogonalEdgeStyle;rounded=0;orthogonalLoop=1;jettySize=auto;html=1;" edge="1" parent="1" source="qp96KWpw2pJv_IqnviUn-160" target="qp96KWpw2pJv_IqnviUn-162">
          <mxGeometry relative="1" as="geometry" />
        </mxCell>
        <mxCell id="qp96KWpw2pJv_IqnviUn-160" value="Prob. de usar un banco al salir" style="whiteSpace=wrap;html=1;rounded=1;" vertex="1" parent="1">
          <mxGeometry x="1410" y="1911" width="120" height="60" as="geometry" />
        </mxCell>
        <mxCell id="qp96KWpw2pJv_IqnviUn-165" value="" style="edgeStyle=orthogonalEdgeStyle;rounded=0;orthogonalLoop=1;jettySize=auto;html=1;entryX=0;entryY=0.75;entryDx=0;entryDy=0;" edge="1" parent="1" source="qp96KWpw2pJv_IqnviUn-162" target="qp96KWpw2pJv_IqnviUn-164">
          <mxGeometry relative="1" as="geometry">
            <mxPoint x="1840" y="1231" as="targetPoint" />
          </mxGeometry>
        </mxCell>
        <mxCell id="qp96KWpw2pJv_IqnviUn-162" value="Prob. de durar un tiempo en el banco" style="whiteSpace=wrap;html=1;rounded=1;" vertex="1" parent="1">
          <mxGeometry x="1410" y="1781" width="120" height="60" as="geometry" />
        </mxCell>
        <mxCell id="qp96KWpw2pJv_IqnviUn-223" style="edgeStyle=orthogonalEdgeStyle;rounded=0;orthogonalLoop=1;jettySize=auto;html=1;entryX=0;entryY=0.5;entryDx=0;entryDy=0;" edge="1" parent="1" source="qp96KWpw2pJv_IqnviUn-164" target="qp96KWpw2pJv_IqnviUn-212">
          <mxGeometry relative="1" as="geometry" />
        </mxCell>
        <mxCell id="qp96KWpw2pJv_IqnviUn-164" value="Se desocupa el casillero asignado al usuario" style="whiteSpace=wrap;html=1;rounded=1;" vertex="1" parent="1">
          <mxGeometry x="1800" y="1140" width="120" height="60" as="geometry" />
        </mxCell>
        <mxCell id="qp96KWpw2pJv_IqnviUn-169" style="edgeStyle=orthogonalEdgeStyle;rounded=0;orthogonalLoop=1;jettySize=auto;html=1;entryX=1;entryY=0.5;entryDx=0;entryDy=0;exitX=0.5;exitY=1;exitDx=0;exitDy=0;" edge="1" parent="1" source="qp96KWpw2pJv_IqnviUn-167" target="qp96KWpw2pJv_IqnviUn-11">
          <mxGeometry relative="1" as="geometry" />
        </mxCell>
        <mxCell id="qp96KWpw2pJv_IqnviUn-167" value="Se le asigna un casillero" style="whiteSpace=wrap;html=1;rounded=1;" vertex="1" parent="1">
          <mxGeometry x="514" y="440" width="120" height="60" as="geometry" />
        </mxCell>
        <mxCell id="qp96KWpw2pJv_IqnviUn-172" style="edgeStyle=orthogonalEdgeStyle;rounded=0;orthogonalLoop=1;jettySize=auto;html=1;entryX=0;entryY=0.5;entryDx=0;entryDy=0;" edge="1" parent="1" source="qp96KWpw2pJv_IqnviUn-170" target="qp96KWpw2pJv_IqnviUn-167">
          <mxGeometry relative="1" as="geometry" />
        </mxCell>
        <mxCell id="qp96KWpw2pJv_IqnviUn-176" style="edgeStyle=orthogonalEdgeStyle;rounded=0;orthogonalLoop=1;jettySize=auto;html=1;entryX=0.5;entryY=0;entryDx=0;entryDy=0;" edge="1" parent="1" source="qp96KWpw2pJv_IqnviUn-170" target="qp96KWpw2pJv_IqnviUn-174">
          <mxGeometry relative="1" as="geometry" />
        </mxCell>
        <mxCell id="qp96KWpw2pJv_IqnviUn-170" value="Casillero disponible?" style="rhombus;whiteSpace=wrap;html=1;" vertex="1" parent="1">
          <mxGeometry x="293" y="430" width="80" height="80" as="geometry" />
        </mxCell>
        <mxCell id="qp96KWpw2pJv_IqnviUn-173" value="&lt;font style=&quot;font-size: 10px;&quot;&gt;Sí&lt;/font&gt;" style="text;html=1;strokeColor=none;fillColor=none;align=center;verticalAlign=middle;whiteSpace=wrap;rounded=0;" vertex="1" parent="1">
          <mxGeometry x="366" y="451" width="30" height="10" as="geometry" />
        </mxCell>
        <mxCell id="qp96KWpw2pJv_IqnviUn-175" style="edgeStyle=orthogonalEdgeStyle;rounded=0;orthogonalLoop=1;jettySize=auto;html=1;entryX=0.454;entryY=-0.044;entryDx=0;entryDy=0;entryPerimeter=0;" edge="1" parent="1" source="qp96KWpw2pJv_IqnviUn-174" target="qp96KWpw2pJv_IqnviUn-11">
          <mxGeometry relative="1" as="geometry" />
        </mxCell>
        <mxCell id="qp96KWpw2pJv_IqnviUn-174" value="Llevará sus cosas consigo mismo" style="rounded=1;whiteSpace=wrap;html=1;" vertex="1" parent="1">
          <mxGeometry x="273" y="531" width="120" height="60" as="geometry" />
        </mxCell>
        <mxCell id="qp96KWpw2pJv_IqnviUn-178" style="edgeStyle=orthogonalEdgeStyle;rounded=0;orthogonalLoop=1;jettySize=auto;html=1;entryX=0;entryY=0.5;entryDx=0;entryDy=0;exitX=1;exitY=0.5;exitDx=0;exitDy=0;" edge="1" parent="1" source="qp96KWpw2pJv_IqnviUn-177" target="qp96KWpw2pJv_IqnviUn-156">
          <mxGeometry relative="1" as="geometry" />
        </mxCell>
        <mxCell id="qp96KWpw2pJv_IqnviUn-204" style="edgeStyle=orthogonalEdgeStyle;rounded=0;orthogonalLoop=1;jettySize=auto;html=1;entryX=0.75;entryY=1;entryDx=0;entryDy=0;exitX=0;exitY=0;exitDx=0;exitDy=0;" edge="1" parent="1" source="qp96KWpw2pJv_IqnviUn-182" target="qp96KWpw2pJv_IqnviUn-164">
          <mxGeometry relative="1" as="geometry">
            <Array as="points">
              <mxPoint x="1130" y="2041" />
              <mxPoint x="1890" y="2041" />
            </Array>
          </mxGeometry>
        </mxCell>
        <mxCell id="qp96KWpw2pJv_IqnviUn-177" value="Se ducha?" style="rhombus;whiteSpace=wrap;html=1;" vertex="1" parent="1">
          <mxGeometry x="1091" y="1901" width="80" height="80" as="geometry" />
        </mxCell>
        <mxCell id="qp96KWpw2pJv_IqnviUn-179" value="&lt;font style=&quot;font-size: 10px;&quot;&gt;Sí&lt;/font&gt;" style="text;html=1;strokeColor=none;fillColor=none;align=center;verticalAlign=middle;whiteSpace=wrap;rounded=0;" vertex="1" parent="1">
          <mxGeometry x="1170" y="1921" width="20" height="10" as="geometry" />
        </mxCell>
        <mxCell id="qp96KWpw2pJv_IqnviUn-182" value="&lt;font style=&quot;font-size: 10px;&quot;&gt;No&lt;/font&gt;" style="text;html=1;strokeColor=none;fillColor=none;align=center;verticalAlign=middle;whiteSpace=wrap;rounded=0;" vertex="1" parent="1">
          <mxGeometry x="1130" y="1981" width="20" height="10" as="geometry" />
        </mxCell>
        <mxCell id="qp96KWpw2pJv_IqnviUn-187" style="edgeStyle=orthogonalEdgeStyle;rounded=0;orthogonalLoop=1;jettySize=auto;html=1;entryX=0;entryY=0.5;entryDx=0;entryDy=0;" edge="1" parent="1" source="qp96KWpw2pJv_IqnviUn-184" target="qp96KWpw2pJv_IqnviUn-186">
          <mxGeometry relative="1" as="geometry" />
        </mxCell>
        <mxCell id="qp96KWpw2pJv_IqnviUn-184" value="Prob. de que se lesione mientras hace el ejercicio" style="whiteSpace=wrap;html=1;rounded=1;" vertex="1" parent="1">
          <mxGeometry x="1090" y="1040" width="120" height="60" as="geometry" />
        </mxCell>
        <mxCell id="qp96KWpw2pJv_IqnviUn-188" style="edgeStyle=orthogonalEdgeStyle;rounded=0;orthogonalLoop=1;jettySize=auto;html=1;entryX=0;entryY=0.5;entryDx=0;entryDy=0;" edge="1" parent="1" source="qp96KWpw2pJv_IqnviUn-186" target="qp96KWpw2pJv_IqnviUn-193">
          <mxGeometry relative="1" as="geometry">
            <mxPoint x="1400" y="1070" as="targetPoint" />
          </mxGeometry>
        </mxCell>
        <mxCell id="qp96KWpw2pJv_IqnviUn-190" style="edgeStyle=orthogonalEdgeStyle;rounded=0;orthogonalLoop=1;jettySize=auto;html=1;entryX=1;entryY=0.5;entryDx=0;entryDy=0;exitX=0.5;exitY=1;exitDx=0;exitDy=0;" edge="1" parent="1" source="qp96KWpw2pJv_IqnviUn-186" target="qp96KWpw2pJv_IqnviUn-122">
          <mxGeometry relative="1" as="geometry" />
        </mxCell>
        <mxCell id="qp96KWpw2pJv_IqnviUn-186" value="Se lesionó?" style="rhombus;whiteSpace=wrap;html=1;" vertex="1" parent="1">
          <mxGeometry x="1250" y="1030" width="80" height="80" as="geometry" />
        </mxCell>
        <mxCell id="qp96KWpw2pJv_IqnviUn-191" value="&lt;font style=&quot;font-size: 10px;&quot;&gt;No&lt;/font&gt;" style="text;html=1;strokeColor=none;fillColor=none;align=center;verticalAlign=middle;whiteSpace=wrap;rounded=0;" vertex="1" parent="1">
          <mxGeometry x="1300" y="1105" width="20" height="10" as="geometry" />
        </mxCell>
        <mxCell id="qp96KWpw2pJv_IqnviUn-192" value="&lt;font style=&quot;font-size: 10px;&quot;&gt;Sí&lt;/font&gt;" style="text;html=1;strokeColor=none;fillColor=none;align=center;verticalAlign=middle;whiteSpace=wrap;rounded=0;" vertex="1" parent="1">
          <mxGeometry x="1330" y="1051" width="20" height="10" as="geometry" />
        </mxCell>
        <mxCell id="qp96KWpw2pJv_IqnviUn-200" value="" style="edgeStyle=orthogonalEdgeStyle;rounded=0;orthogonalLoop=1;jettySize=auto;html=1;" edge="1" parent="1" source="qp96KWpw2pJv_IqnviUn-193" target="qp96KWpw2pJv_IqnviUn-199">
          <mxGeometry relative="1" as="geometry" />
        </mxCell>
        <mxCell id="qp96KWpw2pJv_IqnviUn-201" style="edgeStyle=orthogonalEdgeStyle;rounded=0;orthogonalLoop=1;jettySize=auto;html=1;entryX=0;entryY=0.5;entryDx=0;entryDy=0;" edge="1" parent="1" source="qp96KWpw2pJv_IqnviUn-193" target="qp96KWpw2pJv_IqnviUn-164">
          <mxGeometry relative="1" as="geometry">
            <mxPoint x="1780" y="1171" as="targetPoint" />
            <Array as="points">
              <mxPoint x="1425" y="1170" />
            </Array>
          </mxGeometry>
        </mxCell>
        <mxCell id="qp96KWpw2pJv_IqnviUn-193" value="&lt;font style=&quot;font-size: 9px;&quot;&gt;Requiere hospitalización?&lt;/font&gt;" style="rhombus;whiteSpace=wrap;html=1;" vertex="1" parent="1">
          <mxGeometry x="1380" y="1025" width="90" height="91" as="geometry" />
        </mxCell>
        <mxCell id="qp96KWpw2pJv_IqnviUn-194" value="&lt;font style=&quot;font-size: 10px;&quot;&gt;No&lt;/font&gt;" style="text;html=1;strokeColor=none;fillColor=none;align=center;verticalAlign=middle;whiteSpace=wrap;rounded=0;" vertex="1" parent="1">
          <mxGeometry x="1440" y="1106" width="20" height="10" as="geometry" />
        </mxCell>
        <mxCell id="qp96KWpw2pJv_IqnviUn-195" value="&lt;font style=&quot;font-size: 10px;&quot;&gt;Sí&lt;/font&gt;" style="text;html=1;strokeColor=none;fillColor=none;align=center;verticalAlign=middle;whiteSpace=wrap;rounded=0;" vertex="1" parent="1">
          <mxGeometry x="1470" y="1052" width="20" height="10" as="geometry" />
        </mxCell>
        <mxCell id="qp96KWpw2pJv_IqnviUn-202" style="edgeStyle=orthogonalEdgeStyle;rounded=0;orthogonalLoop=1;jettySize=auto;html=1;entryX=0;entryY=0.25;entryDx=0;entryDy=0;" edge="1" parent="1" source="qp96KWpw2pJv_IqnviUn-199" target="qp96KWpw2pJv_IqnviUn-164">
          <mxGeometry relative="1" as="geometry">
            <mxPoint x="1720" y="1070.5" as="targetPoint" />
          </mxGeometry>
        </mxCell>
        <mxCell id="qp96KWpw2pJv_IqnviUn-206" value="" style="edgeStyle=orthogonalEdgeStyle;rounded=0;orthogonalLoop=1;jettySize=auto;html=1;" edge="1" parent="1" source="qp96KWpw2pJv_IqnviUn-199" target="qp96KWpw2pJv_IqnviUn-205">
          <mxGeometry relative="1" as="geometry" />
        </mxCell>
        <mxCell id="qp96KWpw2pJv_IqnviUn-199" value="Se llama a la ambulancia" style="rounded=1;whiteSpace=wrap;html=1;" vertex="1" parent="1">
          <mxGeometry x="1535" y="1040.5" width="120" height="60" as="geometry" />
        </mxCell>
        <mxCell id="qp96KWpw2pJv_IqnviUn-205" value="Se cobra el traslado al gimnasio" style="whiteSpace=wrap;html=1;rounded=1;" vertex="1" parent="1">
          <mxGeometry x="1535" y="941" width="120" height="60" as="geometry" />
        </mxCell>
        <mxCell id="qp96KWpw2pJv_IqnviUn-209" value="" style="endArrow=classic;html=1;rounded=0;entryX=0.5;entryY=1;entryDx=0;entryDy=0;exitX=0.5;exitY=0;exitDx=0;exitDy=0;" edge="1" parent="1" source="qp96KWpw2pJv_IqnviUn-212" target="qp96KWpw2pJv_IqnviUn-210">
          <mxGeometry width="50" height="50" relative="1" as="geometry">
            <mxPoint x="2435" y="950" as="sourcePoint" />
            <mxPoint x="2440" y="560" as="targetPoint" />
          </mxGeometry>
        </mxCell>
        <mxCell id="qp96KWpw2pJv_IqnviUn-225" style="edgeStyle=orthogonalEdgeStyle;rounded=0;orthogonalLoop=1;jettySize=auto;html=1;entryX=1;entryY=0.5;entryDx=0;entryDy=0;" edge="1" parent="1" source="qp96KWpw2pJv_IqnviUn-210" target="qp96KWpw2pJv_IqnviUn-2">
          <mxGeometry relative="1" as="geometry" />
        </mxCell>
        <mxCell id="qp96KWpw2pJv_IqnviUn-210" value="SIguiente individuo" style="rounded=1;whiteSpace=wrap;html=1;" vertex="1" parent="1">
          <mxGeometry x="1973" y="471" width="120" height="60" as="geometry" />
        </mxCell>
        <mxCell id="qp96KWpw2pJv_IqnviUn-211" value="Fin" style="ellipse;whiteSpace=wrap;html=1;" vertex="1" parent="1">
          <mxGeometry x="2256" y="1140" width="90" height="60" as="geometry" />
        </mxCell>
        <mxCell id="qp96KWpw2pJv_IqnviUn-212" value="&lt;font style=&quot;font-size: 10px;&quot;&gt;Hay más personas?&lt;br&gt;&lt;/font&gt;" style="rhombus;whiteSpace=wrap;html=1;" vertex="1" parent="1">
          <mxGeometry x="1990" y="1130" width="86" height="80" as="geometry" />
        </mxCell>
        <mxCell id="qp96KWpw2pJv_IqnviUn-213" value="" style="endArrow=classic;html=1;rounded=0;exitX=1;exitY=0.5;exitDx=0;exitDy=0;entryX=1;entryY=0.5;entryDx=0;entryDy=0;" edge="1" parent="1" source="qp96KWpw2pJv_IqnviUn-212" target="qp96KWpw2pJv_IqnviUn-216">
          <mxGeometry width="50" height="50" relative="1" as="geometry">
            <mxPoint x="2533" y="1200" as="sourcePoint" />
            <mxPoint x="2360" y="1190" as="targetPoint" />
          </mxGeometry>
        </mxCell>
        <mxCell id="qp96KWpw2pJv_IqnviUn-214" value="&lt;font style=&quot;font-size: 10px;&quot;&gt;No&lt;/font&gt;" style="text;html=1;strokeColor=none;fillColor=none;align=center;verticalAlign=middle;whiteSpace=wrap;rounded=0;" vertex="1" parent="1">
          <mxGeometry x="2063" y="1150" width="30" height="10" as="geometry" />
        </mxCell>
        <mxCell id="qp96KWpw2pJv_IqnviUn-215" value="&lt;font style=&quot;font-size: 10px;&quot;&gt;Sí&lt;/font&gt;" style="text;html=1;strokeColor=none;fillColor=none;align=center;verticalAlign=middle;whiteSpace=wrap;rounded=0;" vertex="1" parent="1">
          <mxGeometry x="2033" y="1120" width="20" height="10" as="geometry" />
        </mxCell>
        <mxCell id="qp96KWpw2pJv_IqnviUn-220" style="edgeStyle=orthogonalEdgeStyle;rounded=0;orthogonalLoop=1;jettySize=auto;html=1;entryX=0;entryY=0.5;entryDx=0;entryDy=0;" edge="1" parent="1" source="qp96KWpw2pJv_IqnviUn-216" target="qp96KWpw2pJv_IqnviUn-211">
          <mxGeometry relative="1" as="geometry" />
        </mxCell>
        <mxCell id="qp96KWpw2pJv_IqnviUn-226" style="edgeStyle=orthogonalEdgeStyle;rounded=0;orthogonalLoop=1;jettySize=auto;html=1;entryX=1;entryY=0.5;entryDx=0;entryDy=0;exitX=0.5;exitY=0;exitDx=0;exitDy=0;" edge="1" parent="1" source="qp96KWpw2pJv_IqnviUn-216" target="qp96KWpw2pJv_IqnviUn-1">
          <mxGeometry relative="1" as="geometry">
            <Array as="points">
              <mxPoint x="2163" y="290" />
            </Array>
          </mxGeometry>
        </mxCell>
        <mxCell id="qp96KWpw2pJv_IqnviUn-216" value="&lt;font style=&quot;font-size: 10px;&quot;&gt;Fin de las iteraciones?&lt;br&gt;&lt;/font&gt;" style="rhombus;whiteSpace=wrap;html=1;" vertex="1" parent="1">
          <mxGeometry x="2120" y="1130" width="86" height="80" as="geometry" />
        </mxCell>
        <mxCell id="qp96KWpw2pJv_IqnviUn-217" value="&lt;font style=&quot;font-size: 10px;&quot;&gt;Sí&lt;/font&gt;" style="text;html=1;strokeColor=none;fillColor=none;align=center;verticalAlign=middle;whiteSpace=wrap;rounded=0;" vertex="1" parent="1">
          <mxGeometry x="2196" y="1150" width="20" height="10" as="geometry" />
        </mxCell>
        <mxCell id="qp96KWpw2pJv_IqnviUn-219" value="&lt;font style=&quot;font-size: 10px;&quot;&gt;No&lt;/font&gt;" style="text;html=1;strokeColor=none;fillColor=none;align=center;verticalAlign=middle;whiteSpace=wrap;rounded=0;" vertex="1" parent="1">
          <mxGeometry x="2136" y="1120" width="20" height="10" as="geometry" />
        </mxCell>
        <mxCell id="qp96KWpw2pJv_IqnviUn-234" style="edgeStyle=orthogonalEdgeStyle;rounded=0;orthogonalLoop=1;jettySize=auto;html=1;entryX=0;entryY=0.5;entryDx=0;entryDy=0;" edge="1" parent="1" source="qp96KWpw2pJv_IqnviUn-230" target="qp96KWpw2pJv_IqnviUn-233">
          <mxGeometry relative="1" as="geometry" />
        </mxCell>
        <mxCell id="qp96KWpw2pJv_IqnviUn-241" style="edgeStyle=orthogonalEdgeStyle;rounded=0;orthogonalLoop=1;jettySize=auto;html=1;" edge="1" parent="1" source="qp96KWpw2pJv_IqnviUn-230" target="qp96KWpw2pJv_IqnviUn-52">
          <mxGeometry relative="1" as="geometry" />
        </mxCell>
        <mxCell id="qp96KWpw2pJv_IqnviUn-230" value="Faltan productos?" style="rhombus;whiteSpace=wrap;html=1;" vertex="1" parent="1">
          <mxGeometry x="-115" y="1260" width="80" height="80" as="geometry" />
        </mxCell>
        <mxCell id="qp96KWpw2pJv_IqnviUn-237" value="" style="edgeStyle=orthogonalEdgeStyle;rounded=0;orthogonalLoop=1;jettySize=auto;html=1;" edge="1" parent="1" source="qp96KWpw2pJv_IqnviUn-233" target="qp96KWpw2pJv_IqnviUn-236">
          <mxGeometry relative="1" as="geometry" />
        </mxCell>
        <mxCell id="qp96KWpw2pJv_IqnviUn-233" value="Se llama al proveedor" style="rounded=1;whiteSpace=wrap;html=1;" vertex="1" parent="1">
          <mxGeometry x="-1" y="1280.5" width="95" height="39" as="geometry" />
        </mxCell>
        <mxCell id="qp96KWpw2pJv_IqnviUn-243" style="edgeStyle=orthogonalEdgeStyle;rounded=0;orthogonalLoop=1;jettySize=auto;html=1;entryX=0.5;entryY=0;entryDx=0;entryDy=0;" edge="1" parent="1" source="qp96KWpw2pJv_IqnviUn-236" target="qp96KWpw2pJv_IqnviUn-52">
          <mxGeometry relative="1" as="geometry" />
        </mxCell>
        <mxCell id="qp96KWpw2pJv_IqnviUn-236" value="Se pagan los productos" style="whiteSpace=wrap;html=1;rounded=1;" vertex="1" parent="1">
          <mxGeometry x="4.75" y="1359" width="83.5" height="31" as="geometry" />
        </mxCell>
        <mxCell id="qp96KWpw2pJv_IqnviUn-238" value="&lt;font style=&quot;font-size: 10px;&quot;&gt;No&lt;/font&gt;" style="text;html=1;strokeColor=none;fillColor=none;align=center;verticalAlign=middle;whiteSpace=wrap;rounded=0;" vertex="1" parent="1">
          <mxGeometry x="-115" y="1330" width="30" height="10" as="geometry" />
        </mxCell>
        <mxCell id="qp96KWpw2pJv_IqnviUn-239" value="&lt;font style=&quot;font-size: 10px;&quot;&gt;Sí&lt;/font&gt;" style="text;html=1;strokeColor=none;fillColor=none;align=center;verticalAlign=middle;whiteSpace=wrap;rounded=0;" vertex="1" parent="1">
          <mxGeometry x="-42.5" y="1275" width="20" height="10" as="geometry" />
        </mxCell>
      </root>
    </mxGraphModel>
  </diagram>
</mxfile>
